REM DIRINDEX 1\2,1\4,1\3\5,1\3\6,1\3\7
REM DIRNAME cjc082,folder01,folder02,folder03,folder04,folder05,folder06
TITLE ""
FILE "CD1Track32.mp3" MP3
  TRACK 01 AUDIO
    TITLE "0:"
    INDEX 01 00:00:00
  TRACK 02 AUDIO
    TITLE "5:cjc082_0546"
    INDEX 01 00:00:33
  TRACK 03 AUDIO
    TITLE "0:"
    INDEX 01 00:01:42
  TRACK 04 AUDIO
    TITLE "6:cjc082_0547"
    INDEX 01 00:02:14
  TRACK 05 AUDIO
    TITLE "0:"
    INDEX 01 00:03:39
  TRACK 06 AUDIO
    TITLE "5:cjc082_0548"
    INDEX 01 00:04:11
  TRACK 07 AUDIO
    TITLE "0:"
    INDEX 01 00:05:52
  TRACK 08 AUDIO
    TITLE "6:cjc082_0549"
    INDEX 01 00:06:18
  TRACK 09 AUDIO
    TITLE "0:"
    INDEX 01 00:08:52
  TRACK 10 AUDIO
    TITLE "5:cjc082_0550"
    INDEX 01 00:09:22
  TRACK 11 AUDIO
    TITLE "0:"
    INDEX 01 00:10:33
  TRACK 12 AUDIO
    TITLE "6:cjc082_0551"
    INDEX 01 00:11:03
  TRACK 13 AUDIO
    TITLE "0:"
    INDEX 01 00:12:12
  TRACK 14 AUDIO
    TITLE "5:cjc082_0552"
    INDEX 01 00:12:60
  TRACK 15 AUDIO
    TITLE "0:"
    INDEX 01 00:14:04
  TRACK 16 AUDIO
    TITLE "6:cjc082_0553"
    INDEX 01 00:14:54
  TRACK 17 AUDIO
    TITLE "0:"
    INDEX 01 00:17:10
  TRACK 18 AUDIO
    TITLE "5:cjc082_0554"
    INDEX 01 00:17:59
  TRACK 19 AUDIO
    TITLE "0:"
    INDEX 01 00:19:20
  TRACK 20 AUDIO
    TITLE "6:cjc082_0555"
    INDEX 01 00:19:65
  TRACK 21 AUDIO
    TITLE "0:"
    INDEX 01 00:21:06
  TRACK 22 AUDIO
    TITLE "5:cjc082_0556"
    INDEX 01 00:21:57
  TRACK 23 AUDIO
    TITLE "0:"
    INDEX 01 00:23:01
  TRACK 24 AUDIO
    TITLE "6:cjc082_0557"
    INDEX 01 00:23:50
  TRACK 25 AUDIO
    TITLE "0:"
    INDEX 01 00:24:57
  TRACK 26 AUDIO
    TITLE "5:cjc082_0558"
    INDEX 01 00:25:29
  TRACK 27 AUDIO
    TITLE "0:"
    INDEX 01 00:26:40
  TRACK 28 AUDIO
    TITLE "6:cjc082_0559"
    INDEX 01 00:27:12
  TRACK 29 AUDIO
    TITLE "0:"
    INDEX 01 00:28:10
  TRACK 30 AUDIO
    TITLE "5:cjc082_0560"
    INDEX 01 00:28:57
  TRACK 31 AUDIO
    TITLE "0:"
    INDEX 01 00:29:72
  TRACK 32 AUDIO
    TITLE "6:cjc082_0561"
    INDEX 01 00:30:48
  TRACK 33 AUDIO
    TITLE "0:"
    INDEX 01 00:31:57
  TRACK 34 AUDIO
    TITLE "5:cjc082_0562"
    INDEX 01 00:32:29
  TRACK 35 AUDIO
    TITLE "0:"
    INDEX 01 00:33:48
  TRACK 36 AUDIO
    TITLE "6:cjc082_0563"
    INDEX 01 00:34:24
  TRACK 37 AUDIO
    TITLE "0:"
    INDEX 01 00:35:57
  TRACK 38 AUDIO
    TITLE "5:cjc082_0564"
    INDEX 01 00:36:35
  TRACK 39 AUDIO
    TITLE "0:"
    INDEX 01 00:37:48
  TRACK 40 AUDIO
    TITLE "6:cjc082_0565"
    INDEX 01 00:38:26
  TRACK 41 AUDIO
    TITLE "0:"
    INDEX 01 00:40:48
  TRACK 42 AUDIO
    TITLE "5:cjc082_0566"
    INDEX 01 00:41:24
  TRACK 43 AUDIO
    TITLE "0:"
    INDEX 01 00:42:55
  TRACK 44 AUDIO
    TITLE "6:cjc082_0567"
    INDEX 01 00:43:33
  TRACK 45 AUDIO
    TITLE "0:"
    INDEX 01 00:45:04
  TRACK 46 AUDIO
    TITLE "5:cjc082_0568"
    INDEX 01 00:45:49
  TRACK 47 AUDIO
    TITLE "0:"
    INDEX 01 00:47:19
  TRACK 48 AUDIO
    TITLE "6:cjc082_0569"
    INDEX 01 00:47:66
  TRACK 49 AUDIO
    TITLE "0:"
    INDEX 01 00:48:73
  TRACK 50 AUDIO
    TITLE "5:cjc082_0570"
    INDEX 01 00:49:45
  TRACK 51 AUDIO
    TITLE "0:"
    INDEX 01 00:51:40
  TRACK 52 AUDIO
    TITLE "6:cjc082_0571"
    INDEX 01 00:52:16
  TRACK 53 AUDIO
    TITLE "0:"
    INDEX 01 00:54:48
  TRACK 54 AUDIO
    TITLE "5:cjc082_0572"
    INDEX 01 00:55:20
  TRACK 55 AUDIO
    TITLE "0:"
    INDEX 01 00:56:69
  TRACK 56 AUDIO
    TITLE "6:cjc082_0573"
    INDEX 01 00:57:45
  TRACK 57 AUDIO
    TITLE "0:"
    INDEX 01 00:59:36
  TRACK 58 AUDIO
    TITLE "7:cjc082_0574"
    INDEX 01 01:00:74
  TRACK 59 AUDIO
    TITLE "0:"
    INDEX 01 01:12:01
